<?xml version="1.0" encoding="UTF-8"?>
<svg viewBox="0 0 100 50" xmlns="http://www.w3.org/2000/svg">
 <defs>
  <linearGradient id="d" x2="0" y1="41.402" y2="40.541" gradientUnits="userSpaceOnUse">
   <stop stop-color="#fff" stop-opacity="0" offset="0"/>
   <stop stop-color="#fff" stop-opacity=".87451" offset="1"/>
  </linearGradient>
  <linearGradient id="c" x1="29.6" x2="29.594" y1="40.209" y2="41.375" gradientUnits="userSpaceOnUse">
   <stop stop-color="#d2cd00" offset="0"/>
   <stop stop-color="#fffe8f" offset="1"/>
  </linearGradient>
  <linearGradient id="b" x1="29.176" x2="30.411" y1="40.156" y2="41.438" gradientUnits="userSpaceOnUse">
   <stop stop-color="#828282" offset="0"/>
   <stop stop-color="#929292" stop-opacity=".35294" offset="1"/>
  </linearGradient>
  <linearGradient id="a" x2="0" y1="39.991" y2="41.6" gradientUnits="userSpaceOnUse">
   <stop stop-color="#adadad" offset="0"/>
   <stop stop-color="#f0f0f0" offset="1"/>
  </linearGradient>
 </defs>
 <g transform="matrix(31.25 0 0 31.25 -875 -1250)">
  <path d="m28 40h3.2v1.6h-3.2v-1.6z" fill="url(#a)"/>
  <path d="m28.156 40.156v1.2812h2.875v-1.2812h-2.875z" fill="url(#b)"/>
  <path d="m28.219 40.219v1.1562h2.75v-1.1562h-2.75z" fill="url(#c)"/>
  <path d="m28.83712,40.27012c-.64661.00085-.57173-.05183-.57173.34768 0,.19522.26761.367.57173.36699h1.53464c.30412,0 .54164-.16512.54164-.36699 0-.40281.06402-.35104-.54164-.34768h-1.53464z" fill="url(#d)"/>
 </g>
</svg>
